<svg width="33" height="33" viewBox="0 0 33 33" fill="none" xmlns="http://www.w3.org/2000/svg">
<path d="M28.1737 32.6919C28.173 32.6981 28.1743 32.7043 28.1774 32.7094L27.7697 32.8642C27.7678 32.8621 27.7663 32.8595 27.7652 32.8566C27.7642 32.8537 27.7637 32.8506 27.7637 32.8475C27.7637 32.8444 27.7642 32.8413 27.7652 32.8384C27.7663 32.8355 27.7678 32.8329 27.7697 32.8308C27.8982 32.7583 28.0261 32.6848 28.1737 32.6919Z" fill="#BAA3C2"/>
<path d="M27.7671 32.8502C27.7687 32.8552 27.7703 32.86 27.7722 32.8652L27.677 32.9013C27.6752 32.8962 27.6734 32.8911 27.6719 32.8864C27.6754 32.8758 27.6808 32.8663 27.6878 32.8586C27.6948 32.8508 27.7032 32.845 27.7123 32.8415C27.7214 32.8381 27.731 32.8371 27.7405 32.8386C27.75 32.8401 27.7591 32.8441 27.7671 32.8502Z" fill="white"/>
<path d="M28.9987 29.6845L28.8994 29.7215C27.7317 30.0846 26.6067 29.9416 25.5215 29.3214C24.6259 28.8095 23.8823 28.0654 23.2251 27.1923C22.8123 26.654 22.4494 26.0647 22.1427 25.4343C22.1312 25.4105 22.1185 25.3874 22.1049 25.3652C21.9948 25.1862 21.888 25.1906 21.7884 25.3782C21.7717 25.414 21.7494 25.4457 21.7228 25.4716C21.3047 25.86 20.8277 26.1495 20.3176 26.3241C19.822 26.4831 19.3268 26.5163 18.8335 26.3019C18.7165 26.2421 18.5846 26.2381 18.4652 26.2906C18.3457 26.3432 18.2479 26.4483 18.192 26.5842C18.0628 26.8616 17.8538 27.0603 17.6369 27.2402C17.1772 27.6253 16.6666 27.9163 16.126 28.1014C15.6398 28.2587 15.1387 28.3419 14.6347 28.349C13.8723 28.37 13.1358 28.2269 12.4412 27.8401C11.626 27.3932 10.9488 26.655 10.5042 25.7287C10.4156 25.5476 10.3901 25.3487 10.3581 25.1508C10.2507 24.5309 10.2311 23.8941 10.3001 23.2666C10.4554 21.9572 11.0153 20.9456 11.9098 20.1781C12.3415 19.8076 12.8254 19.5708 13.3229 19.3591C14.012 19.0663 14.7051 18.783 15.3796 18.4482C16.5182 17.8824 17.5178 17.0819 18.2319 15.8536C18.7361 14.986 19.0129 14.0273 18.9979 12.9633C18.9964 12.8644 18.9805 12.7658 18.9728 12.667C18.9433 12.2946 19.0723 11.9991 19.2919 11.7497C19.496 11.5177 19.7451 11.376 20.0004 11.2416C20.4292 11.0075 20.876 10.823 21.3346 10.6906C22.4545 10.3874 23.5362 10.5016 24.568 11.1188C25.5818 11.7254 26.3575 12.6385 26.9593 13.7706C26.9917 13.8313 27.0237 13.8927 27.0522 13.9561C27.0945 14.045 27.114 14.1467 27.1084 14.2487C27.1027 14.3506 27.0721 14.4483 27.0202 14.5299C26.9606 14.6361 26.8825 14.7258 26.7912 14.7931C26.3621 15.1078 26.1058 15.5814 25.9322 16.125C25.7398 16.7271 25.7247 17.3517 25.7977 17.9825C25.857 18.4868 25.9758 18.9786 26.1505 19.4436C26.3027 19.8531 26.632 20.0046 26.9929 19.9029C27.0557 19.8845 27.1114 19.8413 27.1507 19.7803C27.1901 19.7193 27.2107 19.6442 27.2093 19.5674C27.2196 19.3599 27.1732 19.1541 27.077 18.9806C26.798 18.4697 26.6209 17.9188 26.6615 17.3017C26.6806 16.9105 26.7731 16.5294 26.9322 16.1862C27.0912 15.843 27.3129 15.5463 27.5809 15.3178C28.1475 14.819 28.7761 14.493 29.4917 14.4624C30.3073 14.4277 31.0182 14.7562 31.6376 15.3747C31.7412 15.4783 31.7823 15.6383 31.8398 15.779C32.4412 17.2501 32.4349 18.7388 31.9184 20.2376C31.5191 21.397 30.8982 22.3794 30.172 23.2745C29.7895 23.7474 29.3767 24.1844 28.9374 24.5815C28.8725 24.639 28.8051 24.6922 28.7354 24.7411C28.3813 24.9948 28.1715 25.3671 28.1553 25.8585C28.1341 26.4997 28.2581 27.0945 28.6572 27.5641C28.9046 27.855 29.2112 28.0338 29.5359 28.1714C29.7457 28.2607 29.9619 28.3267 30.1819 28.3689C30.2683 28.3829 30.3513 28.4186 30.4252 28.4737C30.4478 28.4878 30.4677 28.5073 30.4838 28.5308C30.4999 28.5544 30.5119 28.5815 30.5189 28.6106C30.526 28.6398 30.5281 28.6703 30.525 28.7004C30.5219 28.7305 30.5138 28.7596 30.501 28.7859C30.4565 28.8985 30.3818 28.9904 30.2887 29.0472C30.0124 29.2277 29.7258 29.3848 29.4309 29.5175L28.9987 29.6845Z" fill="url(#paint0_linear_4023_4157)"/>
<path d="M0.346417 22.2213C0.0861081 21.1686 -0.0558457 20.0989 0.0206732 18.9989C0.0847996 18.0779 0.291733 17.2099 0.72357 16.4296C0.799775 16.2959 0.882993 16.168 0.972731 16.0468C1.11901 15.8435 1.22989 15.6158 1.20878 15.3383C1.06315 13.4386 1.5578 11.7559 2.45118 10.2146C2.92228 9.38289 3.52122 8.6641 4.21662 8.0959C5.12016 7.36982 6.12127 7.14076 7.19424 7.30776C7.93746 7.4349 8.65832 7.70475 9.32857 8.10672C10.2129 8.62214 11.036 9.27415 11.7764 10.0458C11.8179 10.0886 11.8579 10.1336 11.8965 10.1797C12.1457 10.4779 12.449 10.5151 12.7307 10.2438C13.3093 9.68643 13.9696 9.3251 14.6781 9.08593C15.4452 8.82705 16.209 8.82651 16.9511 9.22428C17.2349 9.37402 17.493 9.58458 17.7125 9.84541C17.8906 10.0584 18.001 10.3255 18.1107 10.5896C18.4217 11.3143 18.5352 12.136 18.4354 12.9408C18.3431 13.6362 18.1235 14.299 17.7922 14.8827C17.2786 15.8302 16.5988 16.6349 15.7993 17.2418C15.4764 17.4788 15.1114 17.6231 14.7333 17.6633C13.5937 17.8148 12.5854 18.3504 11.6974 19.2064C11.1243 19.7552 10.6347 20.4169 10.2503 21.1626C10.2197 21.221 10.1925 21.2817 10.1686 21.3443C10.0703 21.6085 9.90407 21.7062 9.66868 21.6147C9.4902 21.5454 9.31913 21.4503 9.14229 21.3749C8.14964 20.9516 7.13024 20.7209 6.07163 20.7915C4.45864 20.8986 3.07304 21.6377 1.89063 22.932C1.67485 23.166 1.47734 23.4227 1.30051 23.6989C1.25635 23.7714 1.20248 23.8348 1.14105 23.8866C1.00945 23.9936 0.895426 23.958 0.832152 23.7865C0.643498 23.277 0.481281 22.7543 0.346417 22.2213Z" fill="url(#paint1_linear_4023_4157)"/>
<path d="M10.605 2.1324C11.5554 1.77382 12.5542 1.63119 13.549 1.71198C13.5982 1.71083 13.6469 1.72284 13.6916 1.74709C14.0123 1.95824 14.3265 1.92079 14.6128 1.67017C14.7928 1.52157 14.9846 1.39438 15.1856 1.29046C15.7452 0.975042 16.3232 0.708178 16.9152 0.491966C17.9933 0.101594 19.0897 -0.0961612 20.2189 0.0460823C20.935 0.130406 21.6315 0.372468 22.2729 0.75987C23.1081 1.26952 23.8128 1.96501 24.3332 2.90014C24.5485 3.28732 24.6641 3.73102 24.7555 4.1801C24.8263 4.51047 24.8429 4.85394 24.8044 5.19177C24.7153 5.92183 24.3707 6.43163 23.834 6.77723C23.6737 6.88047 23.4965 6.9166 23.3249 6.97686C22.5299 7.25574 22.008 7.94671 21.9381 8.91891C21.932 9.00346 21.9462 9.09019 21.9441 9.17521C21.9459 9.21585 21.9409 9.2565 21.9294 9.29483C21.9179 9.33316 21.9001 9.36842 21.8771 9.39856C21.8541 9.42871 21.8263 9.45316 21.7952 9.47051C21.7642 9.48785 21.7307 9.49775 21.6964 9.49964C21.2374 9.55515 20.816 9.75376 20.4009 9.97573C20.1792 10.0943 19.9695 10.2404 19.7533 10.371C19.5533 10.4919 19.3434 10.5423 19.1295 10.4057C19.0544 10.3538 18.9901 10.2823 18.9415 10.1967C18.5766 9.59256 18.1261 9.06832 17.61 8.64734C17.212 8.32172 16.763 8.09427 16.2895 7.97848C15.8161 7.86269 15.3279 7.86092 14.8539 7.97326C14.1167 8.13406 13.422 8.49955 12.8265 9.0399C12.7486 9.11298 12.6547 9.15807 12.556 9.16986C12.4572 9.18164 12.3577 9.15961 12.2691 9.10638C12.1679 9.05437 12.075 8.98217 11.9943 8.8929C11.0577 7.85079 9.94917 7.17734 8.7269 6.74928C8.19477 6.55916 7.64815 6.43184 7.09496 6.36919C7.01124 6.36075 6.92891 6.33856 6.85032 6.30324C6.64916 6.21176 6.58903 6.02164 6.69859 5.80084C6.76606 5.66482 6.8397 5.53278 6.91445 5.40206C7.79547 3.8453 9.09733 2.69192 10.605 2.1324Z" fill="url(#paint2_linear_4023_4157)"/>
<path d="M31.5798 9.83847C31.8769 10.986 32.032 12.1788 32.0401 13.3794C32.0437 13.4788 32.0357 13.5784 32.0161 13.6752C31.9727 13.8572 31.8691 13.9233 31.7177 13.8642C31.6844 13.8522 31.6526 13.835 31.6232 13.813C31.2381 13.5064 30.8023 13.4148 30.3515 13.4013C29.6882 13.388 29.0274 13.499 28.3932 13.7302C28.1885 13.8021 28.0286 13.7192 27.9859 13.4745C27.9416 13.2614 27.8714 13.0572 27.7775 12.8681C27.3464 11.907 26.7867 11.073 26.0444 10.4234C25.4453 9.88175 24.746 9.51763 24.0046 9.36129C23.9419 9.34858 23.878 9.34674 23.8148 9.35584C23.7574 9.36314 23.6994 9.36348 23.6419 9.35685C23.3833 9.33053 23.2387 9.12453 23.2485 8.8036C23.2593 8.45901 23.4067 8.20092 23.6157 7.98214C23.8119 7.78351 24.0352 7.62603 24.276 7.51648C24.3005 7.50699 24.324 7.49391 24.3459 7.47755C24.8736 7.00699 25.2866 6.42976 25.5024 5.67907C25.7087 4.99387 25.7166 4.2466 25.5249 3.55546C25.5089 3.50031 25.4979 3.44328 25.4922 3.38534C25.4763 3.19242 25.552 3.10374 25.7168 3.11409C25.8583 3.12289 25.9847 3.19631 26.1168 3.24404C27.3847 3.6995 28.5129 4.44092 29.4608 5.55076C30.0691 6.26766 30.5752 7.09719 30.9594 8.0069C31.208 8.59623 31.4155 9.20881 31.5798 9.83847Z" fill="url(#paint3_linear_4023_4157)"/>
<path d="M4.60145 22.0718C5.46728 21.7466 6.38426 21.6605 7.28236 21.8203C8.04241 21.9492 8.7812 22.2164 9.47276 22.6123C9.8048 22.8011 9.87122 23.0531 9.83457 23.2927C9.80084 23.5083 9.78692 23.7276 9.79306 23.9467C9.82013 24.5054 9.88452 25.0607 9.98564 25.6074C10.0157 25.7897 10.0823 25.9608 10.0971 26.1467C10.1092 26.2252 10.1014 26.3062 10.0748 26.3794C10.0482 26.4527 10.0039 26.515 9.94754 26.5584C9.33989 27.0269 8.67428 27.3798 7.97484 27.6042C6.67723 28.0075 5.40729 27.8864 4.16738 27.2927C3.37502 26.9179 2.64677 26.3749 2.01829 25.6902C1.93788 25.6179 1.86463 25.5349 1.79995 25.4429C1.74721 25.35 1.71362 25.2436 1.70191 25.1323C1.6902 25.0211 1.7007 24.9081 1.73255 24.8026C1.79299 24.5682 1.89574 24.3523 2.03364 24.1698C2.55153 23.4464 3.1847 22.8517 3.89678 22.4197C4.12545 22.2867 4.36078 22.1706 4.60145 22.0718Z" fill="url(#paint4_linear_4023_4157)"/>
<defs>
<linearGradient id="paint0_linear_4023_4157" x1="12.5739" y1="9.85068" x2="17.7866" y2="35.1213" gradientUnits="userSpaceOnUse">
<stop stop-color="#E75825"/>
<stop offset="1" stop-color="#E75627"/>
</linearGradient>
<linearGradient id="paint1_linear_4023_4157" x1="-4.83931" y1="9.65941" x2="15.0905" y2="9.65941" gradientUnits="userSpaceOnUse">
<stop stop-color="#18194C"/>
<stop offset="1" stop-color="#142357"/>
</linearGradient>
<linearGradient id="paint2_linear_4023_4157" x1="14.3892" y1="-1.2585" x2="14.2319" y2="9.05552" gradientUnits="userSpaceOnUse">
<stop stop-color="#3E0F51"/>
<stop offset="1" stop-color="#703D85"/>
</linearGradient>
<linearGradient id="paint3_linear_4023_4157" x1="20.3728" y1="11.5369" x2="28.0753" y2="11.5369" gradientUnits="userSpaceOnUse">
<stop stop-color="#5BA921"/>
<stop offset="1" stop-color="#147F00"/>
</linearGradient>
<linearGradient id="paint4_linear_4023_4157" x1="0.0918372" y1="13.9921" x2="-0.231393" y2="23.8188" gradientUnits="userSpaceOnUse">
<stop stop-color="#E7401D"/>
<stop offset="1" stop-color="#AA0021"/>
</linearGradient>
</defs>
</svg>
